<svg width="17.45" height="37.55" viewBox="0 0 17.45 37.55" xmlns="http://www.w3.org/2000/svg"><g id="svgGroup" stroke-linecap="round" fill-rule="evenodd" font-size="9pt" stroke="#14b8a6" stroke-width="0.25mm" fill="#14b8a6" style="stroke:#14b8a6;stroke-width:0.25mm;fill:#14b8a6"><path d="M 0 37.55 L 0 0 L 1.85 0 L 1.85 15.5 Q 5.05 11.95 8.65 11.95 A 6.779 6.779 0 0 1 11.572 12.641 Q 12.539 13.099 13.505 13.859 A 13.726 13.726 0 0 1 14.15 14.4 A 6.638 6.638 0 0 1 15.313 15.735 Q 15.744 16.376 16.11 17.179 A 13.897 13.897 0 0 1 16.525 18.2 A 14.704 14.704 0 0 1 17.219 20.969 Q 17.421 22.276 17.446 23.75 A 24.764 24.764 0 0 1 17.45 24.175 A 19.718 19.718 0 0 1 17.262 26.971 Q 17.049 28.457 16.595 29.719 A 11.64 11.64 0 0 1 16.45 30.1 A 13.149 13.149 0 0 1 15.547 31.95 Q 14.962 32.931 14.252 33.66 A 7.581 7.581 0 0 1 13.9 34 A 9.823 9.823 0 0 1 11.911 35.376 A 13.494 13.494 0 0 1 9.925 36.225 A 23.735 23.735 0 0 1 6.962 37.032 A 19.747 19.747 0 0 1 5.25 37.3 A 37.851 37.851 0 0 1 3.138 37.471 Q 1.688 37.55 0 37.55 Z M 1.85 18 L 1.85 35.65 A 25.12 25.12 0 0 0 6.869 35.194 Q 14.562 33.618 15.477 26.594 A 15.451 15.451 0 0 0 15.6 24.6 A 21.664 21.664 0 0 0 15.41 21.632 Q 15.194 20.074 14.732 18.798 A 9.502 9.502 0 0 0 13.65 16.65 A 7.387 7.387 0 0 0 12.173 15.027 A 5.565 5.565 0 0 0 8.6 13.8 Q 5.5 13.8 1.85 18 Z" vector-effect="non-scaling-stroke"/></g></svg>